# AST/ASF file generated using VICON BodyLanguage
# -----------------------------------------------
:version 1.10
:name VICON
:units
  mass 1.0
  length 0.45
  angle deg
:documentation
   .ast/.asf automatically generated from VICON data using
   VICON BodyBuilder and BodyLanguage model FoxedUp or BRILLIANT.MOD
:root
   order TX TY TZ RX RY RZ
   axis XYZ
   position 0 0 0  
   orientation 0 0 0 
:bonedata
  begin
     id 1 
     name lhipjoint
     direction 0.660183 -0.676772 0.325788 
     length 2.75133 
     axis 0 0 0  XYZ
  end
  begin
     id 2 
     name lfemur
     direction 0.34202 -0.939693 0  
     length 7.70317  
     axis 0 0 20  XYZ
    dof rx ry rz
    limits (-160.0 20.0)
           (-70.0 70.0)
           (-60.0 70.0)
  end
  begin
     id 3 
     name ltibia
     direction 0.342105 -0.939662 0   
     length 7.18701   
     axis 0 0 20   XYZ
    dof rx
    limits (-10.0 170.0)
  end
  begin
     id 4 
     name lfoot
     direction 0.14163 -0.389126 0.910232   
     length 2.41719   
     axis -90 7.62852e-016 20   XYZ
    dof rx rz
    limits (-45.0 90.0)
           (-70.0 20.0)
  end
  begin
     id 5 
     name ltoes
     direction 1.53533e-011 -4.21926e-011 1   
     length 1.18611   
     axis -90 7.62852e-016 20   XYZ
    dof rx
    limits (-90.0 20.0)
  end
  begin
     id 6 
     name rhipjoint
     direction -0.6658 -0.67229 0.323631   
     length 2.76968  
     axis 0 0 0  XYZ 
  end
  begin
     id 7 
     name rfemur
     direction -0.34202 -0.939693 0   
     length 7.92547   
     axis 0 0 -20   XYZ
    dof rx ry rz
    limits (-160.0 20.0)
           (-70.0 70.0)
           (-70.0 60.0)
  end
  begin
     id 8 
     name rtibia
     direction -0.342022 -0.939692 0   
     length 7.22641   
     axis 0 0 -20   XYZ
    dof rx
    limits (-10.0 170.0)
 end
 begin
     id 9 
     name rfoot
     direction -0.105675 -0.29034 0.951071   
     length 2.48149  
     axis -90 -7.62852e-016 -20   XYZ
    dof rx rz
    limits (-45.0 90.0)
           (-20.0 70.0)
  end
  begin
     id 10 
     name rtoes
     direction -1.5349e-011 -4.21859e-011 1   
     length 1.23343   
     axis -90 -7.62852e-016 -20   XYZ
    dof rx
    limits (-90.0 20.0)
  end
  begin
     id 11 
     name lowerback
     direction 0.0104173 0.993624 -0.112266   
     length 2.00527   
     axis 0 0 0   XYZ
    dof rx ry rz
    limits (-20.0 45.0)
           (-30.0 30.0)
           (-30.0 30.0)
  end
  begin
     id 12 
     name upperback
     direction 0.00733149 0.999856 -0.0152913   
     length 2.01385   
     axis 0 0 0   XYZ
    dof rx ry rz
    limits (-20.0 45.0)
           (-30.0 30.0)
           (-30.0 30.0)
  end
  begin
     id 13 
     name thorax
     direction 0.0026304 0.999318 0.036841   
     length 2.03734   
     axis 0 0 0   XYZ
    dof rx ry rz
    limits (-20.0 45.0)
           (-30.0 30.0)
           (-30.0 30.0)
  end
  begin
     id 14 
     name lowerneck
     direction 0.0293154 0.998757 0.0403082   
     length 1.65303   
     axis 0 0 0   XYZ
    dof rx ry rz
    limits (-20.0 45.0)
           (-30.0 30.0)
           (-30.0 30.0)
  end
  begin
     id 15 
     name upperneck
     direction -0.0376619 0.998184 -0.0470083   
     length 1.60926   
     axis 0 0 0   XYZ
    dof rx ry rz
    limits (-20.0 45.0)
           (-30.0 30.0)
           (-30.0 30.0)
  end
  begin
     id 16
     name head
     direction -0.0170133 0.999635 -0.0209778  
     length 1.73625  
     axis 0 0 0   XYZ
    dof rx ry rz
    limits (-20.0 45.0)
           (-30.0 30.0)
           (-30.0 30.0)
  end
  begin
     id 17 
     name lclavicle
     direction 0.919857 0.39181 -0.0186333  
     length 3.75313  
     axis 0 0 0   XYZ
    dof ry rz
    limits (-20.0 10.0)
           (0.0 20.0)
  end
  begin
     id 18 
     name lhumerus
     direction 1 -4.48988e-011 1.44029e-027   
     length 5.49313   
     axis 180 -30 -90   XYZ
    dof rx ry rz
    limits (-60.0 90.0)
           (-90.0 90.0)
           (-90.0 90.0)
  end
  begin
     id 19
     name lradius
     direction 1 -4.48924e-011 7.46281e-027   
     length 3.29037   
     axis 180 -30 -90   XYZ
    dof rx
    limits (-10.0 170.0)
  end
  begin
     id 20
     name lwrist
     direction 1 -4.48955e-011 2.19879e-026   
     length 1.64519   
     axis -1.34358e-014 90 90   XYZ
    dof ry
    limits (-180.0 0.0)
 end
  begin
     id 21 
     name lhand
     direction 1 -4.48978e-011 4.39747e-026   
     length 0.729656   
     axis -2.80598e-014 90 90   XYZ
    dof rx rz
    limits (-90.0 90.0)
           (-45.0 45.0)
  end
  begin
     id 22 
     name lfingers
     direction 1 -4.49071e-011 8.79411e-026   
     length 0.588268   
     axis -5.61193e-014 90 90   XYZ
    dof rx
    limits (0.0 90.0)
  end
  begin
     id 23
     name lthumb
     direction 0.707107 -6.34817e-011 0.707107   
     length 0.844638   
     axis -90 45 -9.86923e-015   XYZ
    dof rx rz
    limits (-45.0 45.0)
           (-45.0 45.0)
  end
  begin
     id 24 
     name rclavicle
     direction -0.919898 0.388279 0.0550233   
     length 3.7171  
     axis 0 0 0   XYZ 
    dof ry rz
    limits (-10.0 20.0)
           (-20.0 0.0)
  end
  begin
     id 25 
     name rhumerus
     direction -1 -4.48968e-011 9.98372e-028  
     length 5.23684   
     axis 180 30 90   XYZ
    dof rx ry rz
    limits (-90.0 60.0)
           (-90.0 90.0)
           (-90.0 90.0)
  end
  begin
     id 26 
     name rradius
     direction -1 -4.48956e-011 1.01023e-026   
     length 3.38251   
     axis 180 30 90   XYZ
    dof rx
    limits (-10.0 170.0)
  end
  begin
     id 27 
     name rwrist
     direction -1 -4.4892e-011 2.19886e-026   
     length 1.69126   
     axis -1.34358e-014 -90 -90   XYZ
    dof ry
    limits (-180.0 0.0)
  end
  begin
     id 28
     name rhand
     direction -1 -4.49024e-011 4.39727e-026   
     length 0.691454   
     axis -2.80598e-014 -90 -90   XYZ
    dof rx rz
    limits (-90.0 90.0)
           (-45.0 45.0)
  end
  begin
     id 29
     name rfingers
     direction -1 -4.49097e-011 8.79388e-026   
     length 0.557468   
     axis -5.61193e-014 -90 -90   XYZ
    dof rx
    limits (0.0 90.0)
  end
  begin
     id 30
     name rthumb
     direction -0.707107 -6.34938e-011 0.707107   
     length 0.800416   
     axis -90 -45 9.86923e-015   XYZ
    dof rx rz
    limits (-45.0 45.0)
           (-45.0 45.0)
  end
:hierarchy
  begin
    root lhipjoint rhipjoint lowerback
    lhipjoint lfemur
    lfemur ltibia
    ltibia lfoot
    lfoot ltoes
    rhipjoint rfemur
    rfemur rtibia
    rtibia rfoot
    rfoot rtoes
    lowerback upperback
    upperback thorax
    thorax lowerneck lclavicle rclavicle
    lowerneck upperneck
    upperneck head
    lclavicle lhumerus
    lhumerus lradius
    lradius lwrist
    lwrist lhand lthumb
    lhand lfingers
    rclavicle rhumerus
    rhumerus rradius
    rradius rwrist
    rwrist rhand rthumb
    rhand rfingers
  end

#!OML:ASF H:\BabyWalks\Project 1\Capture day 1\Session 1\baby.ASF
:FULLY-SPECIFIED
:DEGREES
74
root -35.5823 17.5765 -2.93759 -9.8985 77.382 -13.1049
lowerback 16.5329 -0.485035 -0.530576
upperback 6.82584 -0.324591 1.73487
thorax -1.98677 -0.0534511 2.17579
lowerneck 1.01023 4.29073 1.15698
upperneck -10.9183 5.4169 -6.1552
head -3.50893 2.96247 -2.41878
rclavicle 2.45748e-014 2.23633e-016
rhumerus -52.6188 29.1476 -91.0126
rradius 47.1037
rwrist -8.82927
rhand -11.3829 -17.281
rfingers 7.12502
rthumb 14.6516 -46.7434
lclavicle 2.45748e-014 2.23633e-016
lhumerus -51.2171 -7.61587 85.7263
lradius 50.7356
lwrist 6.2183
lhand -0.623861 11.6531
lfingers 7.12502
lthumb 24.9927 40.0383
rfemur 4.05573 12.0563 24.0985
rtibia 14.9315
rfoot -22.6773 -2.54105
rtoes 6.39595
lfemur -22.3719 -2.35945 -13.7466
ltibia 33.7533
lfoot -17.8551 -9.17785
ltoes 0.880245
75
root -35.5799 17.5764 -2.93625 -9.78647 77.3899 -13.0052
lowerback 16.5211 -0.474008 -0.517529
upperback 6.83347 -0.30836 1.72542
thorax -1.97341 -0.0450783 2.15541
lowerneck 1.02439 4.27647 1.15856
upperneck -10.9149 5.39818 -6.14834
head -3.51138 2.95286 -2.41671
rclavicle -2.95071e-015 -1.18774e-014
rhumerus -52.6041 29.089 -91.0083
rradius 47.0718
rwrist -8.77814
rhand -11.3294 -17.3043
rfingers 7.12502
rthumb 14.7031 -46.7629
lclavicle -2.95071e-015 -1.18774e-014
lhumerus -51.1885 -7.63358 85.7066
lradius 50.7149
lwrist 6.21088
lhand -0.744243 11.6471
lfingers 7.12502
lthumb 24.8773 40.0483
rfemur 4.04279 12.0767 24.0797
rtibia 14.9517
rfoot -22.653 -2.58416
rtoes 6.13216
lfemur -22.3749 -2.33818 -13.7696
ltibia 33.7473
lfoot -17.86 -9.20575
ltoes 0.907327
76
root -35.5774 17.5762 -2.93497 -9.67108 77.3972 -12.9025
lowerback 16.5093 -0.463221 -0.503803
upperback 6.84145 -0.292315 1.71622
thorax -1.95966 -0.0367826 2.13494
lowerneck 1.03956 4.26313 1.16767
upperneck -10.9115 5.38062 -6.14601
head -3.51365 2.94371 -2.41754
rclavicle -1.29521e-014 -6.21202e-017
rhumerus -52.5838 29.0277 -90.9965
rradius 47.0398
rwrist -8.72689
rhand -11.2733 -17.3409
rfingers 7.12502
rthumb 14.7572 -46.7955
lclavicle -1.29521e-014 -6.21202e-017
lhumerus -51.1595 -7.64938 85.688
lradius 50.6956
lwrist 6.20778
lhand -0.850303 11.6427
lfingers 7.12502
lthumb 24.7757 40.058
rfemur 4.02811 12.0947 24.0603
rtibia 14.9755
rfoot -22.6223 -2.62187
rtoes 5.89663
lfemur -22.3802 -2.31694 -13.7941
ltibia 33.7431
lfoot -17.8657 -9.23035
ltoes 0.927164
77
root -35.5748 17.5759 -2.93376 -9.55255 77.4042 -12.7975
lowerback 16.5008 -0.453426 -0.488909
upperback 6.84759 -0.277432 1.70692
thorax -1.9495 -0.0290314 2.11396
lowerneck 1.06418 4.24992 1.19324
upperneck -10.9121 5.36266 -6.15576
head -3.51848 2.93435 -2.42585
rclavicle -2.8743e-014 -9.77772e-015
rhumerus -52.5631 28.9659 -90.9803
rradius 47.0098
rwrist -8.67733
rhand -11.218 -17.3845
rfingers 7.12502
rthumb 14.8105 -46.8353
lclavicle -2.8743e-014 -9.77772e-015
lhumerus -51.1346 -7.66272 85.6702
lradius 50.6796
lwrist 6.21069
lhand -0.944705 11.6386
lfingers 7.12502
lthumb 24.6852 40.0662
rfemur 4.0115 12.1178 24.0413
rtibia 15.0032
rfoot -22.6019 -2.66863
rtoes 5.66865
lfemur -22.3873 -2.29807 -13.8191
ltibia 33.741
lfoot -17.8727 -9.25237
ltoes 0.944006
78
root -35.5722 17.5754 -2.93263 -9.43706 77.4112 -12.6969
lowerback 16.4933 -0.444216 -0.471332
upperback 6.8519 -0.262981 1.69764
thorax -1.94181 -0.0214589 2.09157
lowerneck 1.09476 4.23927 1.2316
upperneck -10.9102 5.34816 -6.17113
head -3.52297 2.92638 -2.43852
rclavicle -1.47598e-014 2.80038e-014
rhumerus -52.5426 28.9008 -90.9605
rradius 46.9816
rwrist -8.62761
rhand -11.1644 -17.4336
rfingers 7.12502
rthumb 14.8621 -46.8805
lclavicle -1.47598e-014 2.80038e-014
lhumerus -51.1147 -7.67716 85.6542
lradius 50.6677
lwrist 6.21935
lhand -1.03111 11.6409
lfingers 7.12502
lthumb 24.6024 40.0798
rfemur 3.99247 12.1373 24.0225
rtibia 15.033
rfoot -22.5894 -2.71502
rtoes 5.44831
lfemur -22.397 -2.28636 -13.8426
ltibia 33.742
lfoot -17.8815 -9.26664
ltoes 0.95913
79
root -35.5696 17.5749 -2.93154 -9.32498 77.4199 -12.6002
lowerback 16.4909 -0.436142 -0.451706
upperback 6.85479 -0.249667 1.68851
thorax -1.9383 -0.014382 2.06843
lowerneck 1.1249 4.23034 1.28149
upperneck -10.906 5.33611 -6.1917
head -3.52605 2.91932 -2.45495
rclavicle 1.93567e-014 -1.20513e-014
rhumerus -52.521 28.8348 -90.9376
rradius 46.9549
rwrist -8.58192
rhand -11.1159 -17.4832
rfingers 7.12502
rthumb 14.9088 -46.9266
lclavicle 1.93567e-014 -1.20513e-014
lhumerus -51.0985 -7.69242 85.6406
lradius 50.6603
lwrist 6.23142
lhand -1.10911 11.6431
lfingers 7.12502
lthumb 24.5276 40.0922
rfemur 3.97222 12.1578 24.0049
rtibia 15.0654
rfoot -22.5793 -2.77453
rtoes 5.15092
lfemur -22.4095 -2.28027 -13.8656
ltibia 33.7463
lfoot -17.891 -9.27596
ltoes 0.969752
80
root -35.567 17.5743 -2.9305 -9.22892 77.4301 -12.5209
lowerback 16.4908 -0.429706 -0.427268
upperback 6.85789 -0.23767 1.68016
thorax -1.93568 -0.00785873 2.04365
lowerneck 1.15697 4.22406 1.34997
upperneck -10.9012 5.32756 -6.22273
head -3.52846 2.91368 -2.47835
rclavicle -3.70361e-014 2.30093e-014
rhumerus -52.4935 28.7677 -90.9107
rradius 46.9273
rwrist -8.5408
rhand -11.0739 -17.527
rfingers 7.12502
rthumb 14.9493 -46.9675
lclavicle -3.70361e-014 2.30093e-014
lhumerus -51.0825 -7.709 85.6292
lradius 50.6557
lwrist 6.24681
lhand -1.17964 11.6494
lfingers 7.12502
lthumb 24.46 40.1077
rfemur 3.95048 12.1784 23.9912
rtibia 15.0984
rfoot -22.5821 -2.83736
rtoes 4.8821
lfemur -22.4253 -2.28286 -13.8842
ltibia 33.7545
lfoot -17.9039 -9.27802
ltoes 0.979116
81
root -35.5643 17.5736 -2.92953 -9.1419 77.4428 -12.4506
lowerback 16.4936 -0.425068 -0.399845
upperback 6.86215 -0.227414 1.6725
thorax -1.93335 -0.00210818 2.01822
lowerneck 1.19051 4.21902 1.43231
upperneck -10.8987 5.32044 -6.26359
head -3.53135 2.90867 -2.50773
rclavicle -2.09966e-015 1.06598e-014
rhumerus -52.4602 28.7007 -90.8794
rradius 46.9006
rwrist -8.50266
rhand -11.043 -17.5612
rfingers 7.12502
rthumb 14.9791 -46.9994
lclavicle -2.09966e-015 1.06598e-014
lhumerus -51.0662 -7.72717 85.6215
lradius 50.6542
lwrist 6.26225
lhand -1.24503 11.659
lfingers 7.12502
lthumb 24.3973 40.1257
rfemur 3.9301 12.1981 23.9795
rtibia 15.1303
rfoot -22.5813 -2.89998
rtoes 4.60814
lfemur -22.4417 -2.2974 -13.9003
ltibia 33.7665
lfoot -17.9196 -9.27028
ltoes 0.990109
82
root -35.5616 17.5729 -2.92859 -9.07487 77.4567 -12.4021
lowerback 16.4965 -0.421824 -0.367584
upperback 6.86672 -0.218162 1.66623
thorax -1.9307 0.00322118 1.9917
lowerneck 1.22282 4.2163 1.51888
upperneck -10.8937 5.31674 -6.3047
head -3.53289 2.90513 -2.53793
rclavicle 2.78423e-014 -3.67752e-015
rhumerus -52.4232 28.6315 -90.8443
rradius 46.8753
rwrist -8.46749
rhand -11.0207 -17.5887
rfingers 7.12502
rthumb 15.0006 -47.0254
lclavicle 2.78423e-014 -3.67752e-015
lhumerus -51.0511 -7.74832 85.6177
lradius 50.6557
lwrist 6.27559
lhand -1.30513 11.6672
lfingers 7.12502
lthumb 24.3397 40.1417
rfemur 3.90916 12.2159 23.9724
rtibia 15.1607
rfoot -22.5848 -2.96351
rtoes 4.35751
lfemur -22.4631 -2.32051 -13.9113
ltibia 33.7832
lfoot -17.9377 -9.25401
ltoes 0.994504
83
root -35.5588 17.5721 -2.9277 -9.02161 77.4729 -12.368
lowerback 16.5013 -0.420527 -0.332308
upperback 6.87063 -0.210941 1.6609
thorax -1.92967 0.00759815 1.96484
lowerneck 1.25129 4.21193 1.59919
upperneck -10.8868 5.31108 -6.34098
head -3.5334 2.90061 -2.56514
rclavicle -1.80149e-014 8.12532e-015
rhumerus -52.3835 28.5613 -90.8073
rradius 46.8502
rwrist -8.43508
rhand -11.0078 -17.6077
rfingers 7.12502
rthumb 15.013 -47.0434
lclavicle -1.80149e-014 8.12532e-015
lhumerus -51.0405 -7.77053 85.6173
lradius 50.6612
lwrist 6.2887
lhand -1.35826 11.677
lfingers 7.12502
lthumb 24.2888 40.1583
rfemur 3.88871 12.2314 23.968
rtibia 15.1898
rfoot -22.5915 -3.02459
rtoes 4.14584
lfemur -22.4875 -2.35393 -13.9188
ltibia 33.8056
lfoot -17.9611 -9.23126
ltoes 0.996434
84
root -35.556 17.5712 -2.92685 -8.98532 77.4906 -12.3524
lowerback 16.507 -0.420503 -0.294626
upperback 6.87406 -0.204957 1.65696
thorax -1.92953 0.0113912 1.93831
lowerneck 1.26952 4.20485 1.66398
upperneck -10.8759 5.3023 -6.36538
head -3.53134 2.89452 -2.58499
rclavicle -1.08462e-014 -2.91716e-014
rhumerus -52.3409 28.4893 -90.7676
rradius 46.8276
rwrist -8.40331
rhand -10.9975 -17.6211
rfingers 7.12502
rthumb 15.0229 -47.0561
lclavicle -1.08462e-014 -2.91716e-014
lhumerus -51.0333 -7.79427 85.62
lradius 50.6692
lwrist 6.29787
lhand -1.40674 11.6853
lfingers 7.12502
lthumb 24.2423 40.1728
rfemur 3.86797 12.2392 23.9663
rtibia 15.2172
rfoot -22.5965 -3.07507
rtoes 3.98391
lfemur -22.5164 -2.39645 -13.9216
ltibia 33.8341
lfoot -17.9889 -9.20034
ltoes 0.995469
